<svg width="890" height="90" viewBox="0 0 890 90" fill="none" xmlns="http://www.w3.org/2000/svg">
<path d="M113.526 34.496C113.526 53.44 98.0375 66.112 71.4135 66.112H26.6135V88H0.245501V44.224H73.9735C82.1655 44.224 86.9015 40.256 86.9015 34.368C86.9015 28.352 82.1655 24.64 73.9735 24.64H0.245501L17.7815 2.368H71.5415C98.0375 2.368 113.526 15.424 113.526 34.496ZM153.498 65.984H219.802L202.65 88H127.002V2.368H153.498V65.984ZM360.185 88H260.601L276.601 65.984H298.105C303.225 65.984 309.241 65.984 313.337 66.24C311.033 63.168 307.449 57.92 304.633 53.824L289.273 31.168L249.081 88H217.721L272.633 10.56C276.217 5.56799 281.465 0.959999 289.785 0.959999C297.721 0.959999 302.969 5.184 306.681 10.56L360.185 88ZM351.34 2.368H448.62L431.468 24.64H400.876V88H374.38V24.64H334.188L351.34 2.368ZM483.507 2.368V88H457.01V2.368H483.507ZM586.786 89.408C583.458 89.408 580.258 88.64 576.162 84.8L523.682 37.696V88H499.618V16.96C499.618 5.56799 506.53 0.959999 514.082 0.959999C517.282 0.959999 520.482 1.728 524.706 5.56799L577.186 52.672V2.368H601.378V73.28C601.378 84.672 594.466 89.408 586.786 89.408ZM728.234 2.368V50.624C728.234 76.48 710.442 89.408 674.858 89.408C633.642 89.408 615.85 76.48 615.85 50.624V2.368H642.218V50.624C642.218 63.296 647.594 67.392 674.858 67.392C695.21 67.392 701.61 62.656 701.61 50.624V2.368H728.234ZM783.942 10.048L797.638 34.24C805.19 47.424 808.518 53.824 811.462 59.84C814.278 53.824 817.606 47.552 825.158 34.368L838.854 10.048C841.926 4.544 846.534 0.959999 853.446 0.959999C860.102 0.959999 865.99 4.8 868.294 12.736L889.926 88H863.558L855.494 58.176C852.806 48.448 851.014 41.536 849.606 34.624C846.79 40.64 843.59 47.168 837.702 58.304L826.182 79.808C821.702 88.256 817.35 89.408 810.95 89.408C804.55 89.408 800.198 88.256 795.718 79.808L784.198 58.176C777.926 46.4 774.854 40.384 772.166 34.624C770.886 41.408 768.966 48.576 766.406 58.176L758.342 88H732.358L754.502 12.736C756.806 4.8 762.822 0.959999 769.478 0.959999C776.262 0.959999 780.87 4.41599 783.942 10.048Z" fill="#008080"/>
</svg>
