<svg width="472" height="90" viewBox="0 0 472 90" fill="none" xmlns="http://www.w3.org/2000/svg">
<path d="M39.681 53.568L55.553 34.496H110.337V88H51.585C21.889 88 0.0010004 69.184 0.0010004 44.352C0.0010004 19.264 21.889 2.368 51.585 2.368H112.897L95.745 24.64H51.585C37.249 24.64 26.369 33.344 26.369 45.504C26.369 57.92 36.865 65.984 51.585 65.984H83.969V53.568H39.681ZM185.468 0.959999C227.068 0.959999 248.06 14.528 248.06 45.12C248.06 75.712 227.068 89.408 185.468 89.408C143.74 89.408 122.876 75.712 122.876 45.12C122.876 14.528 143.74 0.959999 185.468 0.959999ZM185.468 67.136C212.092 67.136 221.692 63.552 221.692 45.12C221.692 26.688 212.092 23.232 185.468 23.232C158.844 23.232 149.244 26.688 149.244 45.12C149.244 63.552 158.844 67.136 185.468 67.136ZM287.935 65.984H354.239L337.087 88H261.439V2.368H287.935V65.984ZM471.992 44.352C471.992 69.184 450.104 88 420.408 88H363.064V34.624H389.688V65.984H420.408C435.128 65.984 445.752 57.792 445.752 45.504C445.752 33.472 434.744 24.64 420.408 24.64H363.064L379.96 2.368H420.408C450.36 2.368 471.992 19.648 471.992 44.352Z" fill="#008080"/>
</svg>
