<svg width="628" height="88" viewBox="0 0 628 88" fill="none" xmlns="http://www.w3.org/2000/svg">
<path d="M38.082 34.544H84.674C105.538 34.544 116.802 42.352 116.802 57.968C116.802 75.504 106.178 86 80.066 86H0.322L17.346 63.984H82.114C88.386 63.984 91.202 62.192 91.202 57.712C91.202 53.36 88.386 51.568 82.114 51.568H35.522C13.506 51.568 3.394 41.712 3.394 26.992C3.394 10.864 14.146 0.367996 40.13 0.367996H114.498L97.474 22.64H38.082C31.938 22.64 28.994 24.176 28.994 28.528C28.994 32.88 31.938 34.544 38.082 34.544ZM155.444 0.367996V86H128.948V0.367996H155.444ZM198.435 63.984H264.739L247.587 86H171.939V0.367996H198.435V63.984ZM245.408 0.367996H277.92L316.448 57.2L356.64 0.367996H387.872L333.088 77.808C329.376 82.8 324.128 87.408 315.936 87.408C308 87.408 302.752 83.184 299.04 77.808L245.408 0.367996ZM423.938 63.984H496.77L479.746 86H397.314V0.367996H496.514L479.362 22.64H423.938V32.88H491.778L476.546 52.336H423.938V63.984ZM611.542 69.36L627.286 86H591.83L572.758 63.344H532.054V86H505.558V42.224H580.054C588.246 42.224 594.646 38.512 594.646 32.624C594.646 25.968 589.142 22.64 580.054 22.64H505.558L522.838 0.367996H577.878C597.334 0.367996 621.91 6.51199 621.91 30.96C621.91 44.272 613.59 55.28 599.51 58.096C602.454 60.272 605.654 63.344 611.542 69.36Z" fill="#008080"/>
</svg>
