<svg width="719" height="90" viewBox="0 0 719 90" fill="none" xmlns="http://www.w3.org/2000/svg">
<path d="M96.829 43.968C104.253 46.144 110.269 52.8 110.269 63.04C110.269 77.248 102.461 88 75.453 88H0.189V35.904H75.965C79.805 35.904 83.389 34.496 83.389 30.144C83.389 25.92 79.677 24.64 75.965 24.64H0.189L18.109 2.368H74.813C95.293 2.368 108.477 10.304 108.477 26.048C108.477 36.16 102.717 41.792 96.829 43.968ZM75.581 54.208H26.813V65.984H75.581C81.341 65.984 83.773 63.936 83.773 59.968C83.773 56.256 81.341 54.208 75.581 54.208ZM229.292 71.36L245.036 88H209.58L190.508 65.344H149.804V88H123.308V44.224H197.804C205.996 44.224 212.396 40.512 212.396 34.624C212.396 27.968 206.892 24.64 197.804 24.64H123.308L140.588 2.368H195.628C215.084 2.368 239.66 8.51199 239.66 32.96C239.66 46.272 231.34 57.28 217.26 60.096C220.204 62.272 223.404 65.344 229.292 71.36ZM311.343 0.959999C352.943 0.959999 373.935 14.528 373.935 45.12C373.935 75.712 352.943 89.408 311.343 89.408C269.615 89.408 248.751 75.712 248.751 45.12C248.751 14.528 269.615 0.959999 311.343 0.959999ZM311.343 67.136C337.967 67.136 347.567 63.552 347.567 45.12C347.567 26.688 337.967 23.232 311.343 23.232C284.719 23.232 275.119 26.688 275.119 45.12C275.119 63.552 284.719 67.136 311.343 67.136ZM474.098 89.408C470.77 89.408 467.57 88.64 463.474 84.8L410.994 37.696V88H386.93V16.96C386.93 5.56799 393.842 0.959999 401.394 0.959999C404.594 0.959999 407.794 1.728 412.018 5.56799L464.498 52.672V2.368H488.69V73.28C488.69 84.672 481.778 89.408 474.098 89.408ZM610.298 65.984L594.298 88H513.146C506.49 88 500.858 84.16 500.858 77.248C500.858 73.28 503.034 69.44 506.618 66.624L537.85 42.048C552.058 30.656 558.202 26.432 561.402 24.128C556.794 24.512 548.986 24.64 531.962 24.64H497.658L514.554 2.368H593.53C600.186 2.368 605.818 6.20799 605.818 13.12C605.818 16.96 603.642 20.928 600.058 23.616L568.442 48.704C554.362 59.84 548.474 64.192 545.146 66.496C549.37 66.24 565.754 65.984 579.194 65.984H610.298ZM646.063 65.984H718.895L701.871 88H619.439V2.368H718.639L701.487 24.64H646.063V34.88H713.903L698.671 54.336H646.063V65.984Z" fill="#008080"/>
</svg>
