<svg width="620" height="116" viewBox="0 0 620 116" fill="none" xmlns="http://www.w3.org/2000/svg">
<path d="M28.48 49.992H58.496L49.984 61H28.48C13.632 61 2.688 51.592 2.688 39.176C2.688 26.632 13.632 18.184 28.48 18.184H58.496L49.984 29.32H28.48C21.312 29.32 15.936 33.608 15.936 39.752C15.936 45.832 21.248 49.992 28.48 49.992ZM115.959 52.68L123.831 61H106.103L96.5665 49.672H76.2145V61H62.9665V39.112H100.215C104.311 39.112 107.511 37.256 107.511 34.312C107.511 30.984 104.759 29.32 100.215 29.32H62.9665L71.6065 18.184H99.1265C108.855 18.184 121.143 21.256 121.143 33.48C121.143 40.136 116.983 45.64 109.943 47.048C111.415 48.136 113.015 49.672 115.959 52.68ZM141.907 49.992H178.323L169.811 61H128.595V18.184H178.195L169.619 29.32H141.907V34.44H175.827L168.211 44.168H141.907V49.992ZM199.229 35.272H222.525C232.957 35.272 238.589 39.176 238.589 46.984C238.589 55.752 233.277 61 220.221 61H180.349L188.861 49.992H221.245C224.381 49.992 225.789 49.096 225.789 46.856C225.789 44.68 224.381 43.784 221.245 43.784H197.949C186.941 43.784 181.885 38.856 181.885 31.496C181.885 23.432 187.26 18.184 200.253 18.184H237.437L228.925 29.32H199.229C196.157 29.32 194.685 30.088 194.685 32.264C194.685 34.44 196.157 35.272 199.229 35.272ZM268.918 49.992H298.934L290.422 61H268.918C254.07 61 243.126 51.592 243.126 39.176C243.126 26.632 254.07 18.184 268.918 18.184H298.934L290.422 29.32H268.918C261.75 29.32 256.374 33.608 256.374 39.752C256.374 45.832 261.686 49.992 268.918 49.992ZM316.844 49.992H353.26L344.748 61H303.532V18.184H353.132L344.556 29.32H316.844V34.44H350.764L343.148 44.168H316.844V49.992ZM401.174 61.704C399.51 61.704 397.91 61.32 395.862 59.4L369.622 35.848V61H357.59V25.48C357.59 19.784 361.046 17.48 364.822 17.48C366.422 17.48 368.022 17.864 370.134 19.784L396.374 43.336V18.184H408.47V53.64C408.47 59.336 405.014 61.704 401.174 61.704ZM470.746 39.176C470.746 51.592 459.802 61 444.954 61H416.282V34.312H429.594V49.992H444.954C452.314 49.992 457.626 45.896 457.626 39.752C457.626 33.736 452.122 29.32 444.954 29.32H416.282L424.73 18.184H444.954C459.93 18.184 470.746 26.824 470.746 39.176ZM507.422 17.48C528.222 17.48 538.718 24.264 538.718 39.56C538.718 54.856 528.222 61.704 507.422 61.704C486.558 61.704 476.126 54.856 476.126 39.56C476.126 24.264 486.558 17.48 507.422 17.48ZM507.422 50.568C520.734 50.568 525.534 48.776 525.534 39.56C525.534 30.344 520.734 28.616 507.422 28.616C494.11 28.616 489.31 30.344 489.31 39.56C489.31 48.776 494.11 50.568 507.422 50.568Z" fill="black"/>
<path d="M1.66 107C1.43333 107 1.18667 106.927 0.92 106.78C0.653333 106.62 0.52 106.413 0.52 106.16V104.22C0.52 103.7 0.673333 103.213 0.98 102.76C1.28667 102.293 1.68667 101.853 2.18 101.44C2.67333 101.027 3.19333 100.627 3.74 100.24C4.28667 99.8533 4.8 99.46 5.28 99.06C5.77333 98.66 6.17333 98.2533 6.48 97.84C6.8 97.4267 6.96 96.9867 6.96 96.52C6.96 96.24 6.89333 95.9667 6.76 95.7C6.64 95.42 6.44 95.1933 6.16 95.02C5.89333 94.8333 5.54 94.74 5.1 94.74C4.62 94.74 4.2 94.88 3.84 95.16C3.49333 95.4267 3.32 95.8733 3.32 96.5C3.32 96.74 3.2 96.96 2.96 97.16C2.72 97.36 2.38667 97.46 1.96 97.46C1.61333 97.46 1.33333 97.36 1.12 97.16C0.906667 96.96 0.8 96.5933 0.8 96.06C0.8 95.3 1 94.6467 1.4 94.1C1.8 93.54 2.32667 93.1133 2.98 92.82C3.64667 92.5267 4.35333 92.38 5.1 92.38C5.87333 92.38 6.6 92.5467 7.28 92.88C7.96 93.2 8.50667 93.66 8.92 94.26C9.34667 94.86 9.56 95.5867 9.56 96.44C9.56 97.1467 9.40667 97.7867 9.1 98.36C8.79333 98.9333 8.4 99.4533 7.92 99.92C7.44 100.387 6.92667 100.813 6.38 101.2C5.84667 101.573 5.34 101.927 4.86 102.26C4.38 102.58 3.98667 102.9 3.68 103.22C3.37333 103.54 3.22 103.873 3.22 104.22V104.72H8.78C9.00667 104.72 9.2 104.833 9.36 105.06C9.52 105.273 9.6 105.533 9.6 105.84C9.6 106.147 9.52 106.42 9.36 106.66C9.2 106.887 9.00667 107 8.78 107H1.66ZM19.6777 107.12C18.7977 107.12 18.0043 106.973 17.2977 106.68C16.591 106.373 16.031 105.887 15.6177 105.22C15.2043 104.54 14.9977 103.64 14.9977 102.52V96.98C14.9977 95.86 15.2043 94.9667 15.6177 94.3C16.031 93.62 16.591 93.1333 17.2977 92.84C18.0043 92.5333 18.7977 92.38 19.6777 92.38C20.5577 92.38 21.351 92.5333 22.0577 92.84C22.7777 93.1333 23.3443 93.62 23.7577 94.3C24.171 94.9667 24.3777 95.86 24.3777 96.98V102.52C24.3777 103.64 24.171 104.54 23.7577 105.22C23.3443 105.887 22.7777 106.373 22.0577 106.68C21.351 106.973 20.5577 107.12 19.6777 107.12ZM19.6777 104.84C20.331 104.84 20.8443 104.653 21.2177 104.28C21.591 103.907 21.7777 103.32 21.7777 102.52V96.98C21.7777 96.18 21.591 95.5933 21.2177 95.22C20.8443 94.8467 20.331 94.66 19.6777 94.66C19.0243 94.66 18.511 94.8467 18.1377 95.22C17.7777 95.5933 17.5977 96.18 17.5977 96.98V102.52C17.5977 103.32 17.7777 103.907 18.1377 104.28C18.511 104.653 19.0243 104.84 19.6777 104.84ZM19.6777 100.7C19.3977 100.7 19.171 100.613 18.9977 100.44C18.8377 100.253 18.7577 100.027 18.7577 99.76C18.7577 99.48 18.8377 99.26 18.9977 99.1C19.171 98.9267 19.3977 98.84 19.6777 98.84C19.971 98.84 20.1977 98.9267 20.3577 99.1C20.531 99.26 20.6177 99.48 20.6177 99.76C20.6177 100.027 20.531 100.253 20.3577 100.44C20.1977 100.613 19.971 100.7 19.6777 100.7ZM30.9295 107C30.7029 107 30.4562 106.927 30.1895 106.78C29.9229 106.62 29.7895 106.413 29.7895 106.16V104.22C29.7895 103.7 29.9429 103.213 30.2495 102.76C30.5562 102.293 30.9562 101.853 31.4495 101.44C31.9429 101.027 32.4629 100.627 33.0095 100.24C33.5562 99.8533 34.0695 99.46 34.5495 99.06C35.0429 98.66 35.4429 98.2533 35.7495 97.84C36.0695 97.4267 36.2295 96.9867 36.2295 96.52C36.2295 96.24 36.1629 95.9667 36.0295 95.7C35.9095 95.42 35.7095 95.1933 35.4295 95.02C35.1629 94.8333 34.8095 94.74 34.3695 94.74C33.8895 94.74 33.4695 94.88 33.1095 95.16C32.7629 95.4267 32.5895 95.8733 32.5895 96.5C32.5895 96.74 32.4695 96.96 32.2295 97.16C31.9895 97.36 31.6562 97.46 31.2295 97.46C30.8829 97.46 30.6029 97.36 30.3895 97.16C30.1762 96.96 30.0695 96.5933 30.0695 96.06C30.0695 95.3 30.2695 94.6467 30.6695 94.1C31.0695 93.54 31.5962 93.1133 32.2495 92.82C32.9162 92.5267 33.6229 92.38 34.3695 92.38C35.1429 92.38 35.8695 92.5467 36.5495 92.88C37.2295 93.2 37.7762 93.66 38.1895 94.26C38.6162 94.86 38.8295 95.5867 38.8295 96.44C38.8295 97.1467 38.6762 97.7867 38.3695 98.36C38.0629 98.9333 37.6695 99.4533 37.1895 99.92C36.7095 100.387 36.1962 100.813 35.6495 101.2C35.1162 101.573 34.6095 101.927 34.1295 102.26C33.6495 102.58 33.2562 102.9 32.9495 103.22C32.6429 103.54 32.4895 103.873 32.4895 104.22V104.72H38.0495C38.2762 104.72 38.4695 104.833 38.6295 105.06C38.7895 105.273 38.8695 105.533 38.8695 105.84C38.8695 106.147 38.7895 106.42 38.6295 106.66C38.4695 106.887 38.2762 107 38.0495 107H30.9295ZM49.8975 107C49.5775 107 49.2775 106.933 48.9975 106.8C48.7308 106.653 48.5975 106.44 48.5975 106.16V103.82H43.7975C43.5442 103.82 43.3308 103.74 43.1575 103.58C42.9842 103.407 42.8975 103.18 42.8975 102.9C42.8975 102.82 42.9108 102.733 42.9375 102.64C42.9642 102.547 42.9975 102.453 43.0375 102.36L47.7775 93.06C47.8975 92.8067 48.0575 92.6333 48.2575 92.54C48.4575 92.4333 48.6642 92.38 48.8775 92.38C49.0375 92.38 49.2175 92.42 49.4175 92.5C49.6175 92.58 49.7908 92.7 49.9375 92.86C50.0975 93.0067 50.1775 93.18 50.1775 93.38C50.1775 93.46 50.1442 93.5733 50.0775 93.72L46.2375 101.4H48.5975V99.3C48.5975 99.0067 48.7308 98.8 48.9975 98.68C49.2775 98.5467 49.5775 98.48 49.8975 98.48C50.2175 98.48 50.5108 98.5467 50.7775 98.68C51.0575 98.8 51.1975 99.0067 51.1975 99.3V101.4H52.1175C52.3975 101.4 52.6042 101.527 52.7375 101.78C52.8842 102.033 52.9575 102.307 52.9575 102.6C52.9575 102.907 52.8708 103.187 52.6975 103.44C52.5242 103.693 52.3308 103.82 52.1175 103.82H51.1975V106.16C51.1975 106.44 51.0575 106.653 50.7775 106.8C50.5108 106.933 50.2175 107 49.8975 107ZM67.4805 107C67.1605 107 66.8605 106.933 66.5805 106.8C66.3138 106.653 66.1805 106.447 66.1805 106.18V93.22C66.1805 92.94 66.3005 92.7333 66.5405 92.6C66.7805 92.4533 67.0405 92.38 67.3205 92.38H74.3005C74.5938 92.38 74.8005 92.5 74.9205 92.74C75.0538 92.98 75.1205 93.2333 75.1205 93.5C75.1205 93.82 75.0471 94.0933 74.9005 94.32C74.7671 94.5467 74.5671 94.66 74.3005 94.66H68.7805V98.66H71.8405C72.1071 98.66 72.3071 98.7667 72.4405 98.98C72.5871 99.18 72.6605 99.42 72.6605 99.7C72.6605 99.9267 72.5938 100.153 72.4605 100.38C72.3405 100.593 72.1338 100.7 71.8405 100.7H68.7805V106.18C68.7805 106.447 68.6471 106.653 68.3805 106.8C68.1138 106.933 67.8138 107 67.4805 107ZM88.3763 107.1C88.2029 107.1 88.0296 107.047 87.8563 106.94C87.6963 106.833 87.5696 106.68 87.4763 106.48L84.6363 100.96H82.9563V106.16C82.9563 106.44 82.8229 106.653 82.5563 106.8C82.2896 106.933 81.9896 107 81.6562 107C81.3363 107 81.0363 106.933 80.7563 106.8C80.4896 106.653 80.3563 106.44 80.3563 106.16V93.2C80.3563 92.9733 80.4296 92.78 80.5763 92.62C80.7363 92.46 80.9429 92.38 81.1963 92.38H85.1563C86.0363 92.38 86.8296 92.5067 87.5363 92.76C88.2563 93.0133 88.8296 93.4467 89.2562 94.06C89.6829 94.66 89.8963 95.4933 89.8963 96.56C89.8963 97.3333 89.7829 97.9933 89.5563 98.54C89.3296 99.0733 89.0163 99.5067 88.6163 99.84C88.2296 100.16 87.7829 100.4 87.2763 100.56L89.9163 105.42C89.9429 105.473 89.9629 105.533 89.9763 105.6C89.9896 105.653 89.9963 105.7 89.9963 105.74C89.9963 105.953 89.9163 106.167 89.7563 106.38C89.5963 106.593 89.3896 106.767 89.1363 106.9C88.8963 107.033 88.6429 107.1 88.3763 107.1ZM82.9563 98.92H85.1563C85.8096 98.92 86.3296 98.76 86.7163 98.44C87.1029 98.12 87.2963 97.5733 87.2963 96.8C87.2963 96 87.1029 95.4467 86.7163 95.14C86.3296 94.82 85.8096 94.66 85.1563 94.66H82.9563V98.92ZM100.183 107.12C99.3568 107.12 98.5901 106.973 97.8834 106.68C97.1768 106.373 96.6101 105.887 96.1834 105.22C95.7701 104.54 95.5634 103.64 95.5634 102.52V96.98C95.5634 95.86 95.7701 94.9667 96.1834 94.3C96.6101 93.62 97.1768 93.1333 97.8834 92.84C98.5901 92.5333 99.3634 92.38 100.203 92.38C101.137 92.38 101.957 92.54 102.663 92.86C103.383 93.1667 103.943 93.6 104.343 94.16C104.757 94.72 104.963 95.3933 104.963 96.18C104.963 96.7 104.857 97.0467 104.643 97.22C104.43 97.38 104.103 97.46 103.663 97.46C103.303 97.46 102.997 97.4 102.743 97.28C102.503 97.1467 102.377 96.9333 102.363 96.64C102.363 96.48 102.337 96.2933 102.283 96.08C102.243 95.8533 102.157 95.6333 102.023 95.42C101.89 95.2067 101.683 95.0267 101.403 94.88C101.137 94.7333 100.763 94.66 100.283 94.66C99.6034 94.66 99.0834 94.8533 98.7234 95.24C98.3634 95.6133 98.1834 96.1933 98.1834 96.98V102.52C98.1834 103.32 98.3634 103.907 98.7234 104.28C99.0968 104.653 99.6301 104.84 100.323 104.84C100.777 104.84 101.137 104.767 101.403 104.62C101.67 104.473 101.863 104.293 101.983 104.08C102.117 103.853 102.203 103.62 102.243 103.38C102.297 103.14 102.337 102.913 102.363 102.7C102.39 102.38 102.523 102.167 102.763 102.06C103.003 101.94 103.297 101.88 103.643 101.88C104.097 101.88 104.43 101.967 104.643 102.14C104.857 102.313 104.963 102.653 104.963 103.16C104.963 103.96 104.757 104.66 104.343 105.26C103.943 105.86 103.383 106.32 102.663 106.64C101.943 106.96 101.117 107.12 100.183 107.12ZM123.283 107.12C122.403 107.12 121.61 106.973 120.903 106.68C120.196 106.373 119.63 105.887 119.203 105.22C118.79 104.54 118.583 103.64 118.583 102.52V96.98C118.583 95.86 118.79 94.9667 119.203 94.3C119.63 93.62 120.19 93.1333 120.883 92.84C121.59 92.5333 122.363 92.38 123.203 92.38C124.136 92.38 124.956 92.5333 125.663 92.84C126.383 93.1467 126.95 93.5867 127.363 94.16C127.776 94.7333 127.983 95.42 127.983 96.22C127.983 96.7133 127.876 97.0467 127.663 97.22C127.45 97.38 127.123 97.46 126.683 97.46C126.336 97.46 126.036 97.4 125.783 97.28C125.53 97.16 125.396 96.9467 125.383 96.64C125.37 96.32 125.303 96.0133 125.183 95.72C125.076 95.4133 124.876 95.16 124.583 94.96C124.303 94.76 123.87 94.66 123.283 94.66C122.63 94.66 122.116 94.8533 121.743 95.24C121.383 95.6133 121.203 96.1933 121.203 96.98V102.52C121.203 103.307 121.383 103.893 121.743 104.28C122.116 104.653 122.63 104.84 123.283 104.84C123.936 104.84 124.45 104.653 124.823 104.28C125.196 103.893 125.383 103.307 125.383 102.52V101.36H123.763C123.51 101.36 123.31 101.253 123.163 101.04C123.03 100.827 122.963 100.593 122.963 100.34C122.963 100.087 123.03 99.8533 123.163 99.64C123.31 99.4267 123.51 99.32 123.763 99.32H127.163C127.43 99.32 127.63 99.4067 127.763 99.58C127.91 99.74 127.983 99.94 127.983 100.18V102.52C127.983 103.64 127.776 104.54 127.363 105.22C126.95 105.887 126.383 106.373 125.663 106.68C124.956 106.973 124.163 107.12 123.283 107.12ZM135.872 107.18C135.165 107.18 134.552 106.967 134.032 106.54C133.525 106.1 133.272 105.427 133.272 104.52C133.272 103.76 133.465 103.167 133.852 102.74C134.252 102.313 134.799 102.013 135.492 101.84C136.199 101.667 137.012 101.58 137.932 101.58H138.752V101.32C138.752 101.027 138.692 100.74 138.572 100.46C138.465 100.18 138.285 99.9467 138.032 99.76C137.792 99.5733 137.445 99.48 136.992 99.48C136.485 99.48 136.092 99.5333 135.812 99.64C135.545 99.7333 135.339 99.8333 135.192 99.94C135.045 100.047 134.885 100.1 134.712 100.1C134.432 100.1 134.212 99.96 134.052 99.68C133.905 99.4 133.832 99.1133 133.832 98.82C133.832 98.54 133.999 98.2933 134.332 98.08C134.679 97.8533 135.099 97.68 135.592 97.56C136.085 97.44 136.565 97.38 137.032 97.38C138.072 97.38 138.905 97.5667 139.532 97.94C140.159 98.3133 140.612 98.7933 140.892 99.38C141.185 99.9667 141.332 100.6 141.332 101.28V106.16C141.332 106.4 141.212 106.6 140.972 106.76C140.732 106.92 140.432 107 140.072 107C139.739 107 139.459 106.92 139.232 106.76C139.019 106.6 138.912 106.4 138.912 106.16V105.6C138.552 106.013 138.125 106.38 137.632 106.7C137.152 107.02 136.565 107.18 135.872 107.18ZM136.912 105.26C137.192 105.26 137.472 105.167 137.752 104.98C138.032 104.793 138.265 104.553 138.452 104.26C138.652 103.967 138.752 103.66 138.752 103.34V102.92H138.452C138.012 102.92 137.592 102.947 137.192 103C136.792 103.053 136.465 103.173 136.212 103.36C135.972 103.533 135.852 103.807 135.852 104.18C135.852 104.553 135.952 104.827 136.152 105C136.365 105.173 136.619 105.26 136.912 105.26ZM148.526 107C148.153 107 147.846 106.913 147.606 106.74C147.366 106.567 147.246 106.373 147.246 106.16V98.3C147.246 98.06 147.366 97.8667 147.606 97.72C147.846 97.5733 148.153 97.5 148.526 97.5C148.846 97.5 149.113 97.5733 149.326 97.72C149.553 97.8667 149.666 98.06 149.666 98.3V98.9C149.893 98.5133 150.226 98.1667 150.666 97.86C151.106 97.54 151.659 97.38 152.326 97.38C152.899 97.38 153.406 97.5667 153.846 97.94C154.286 98.3133 154.613 98.7933 154.826 99.38C155.173 98.7 155.613 98.2 156.146 97.88C156.693 97.5467 157.253 97.38 157.826 97.38C158.439 97.38 159.013 97.54 159.546 97.86C160.093 98.1667 160.533 98.6267 160.866 99.24C161.213 99.84 161.386 100.573 161.386 101.44V106.16C161.386 106.373 161.259 106.567 161.006 106.74C160.753 106.913 160.446 107 160.086 107C159.739 107 159.439 106.913 159.186 106.74C158.933 106.567 158.806 106.373 158.806 106.16V101.44C158.806 101.04 158.726 100.707 158.566 100.44C158.419 100.173 158.219 99.9733 157.966 99.84C157.713 99.6933 157.453 99.62 157.186 99.62C156.933 99.62 156.686 99.6933 156.446 99.84C156.206 99.9733 156.006 100.173 155.846 100.44C155.686 100.707 155.606 101.033 155.606 101.42V106.18C155.606 106.473 155.466 106.687 155.186 106.82C154.919 106.94 154.626 107 154.306 107C154.013 107 153.726 106.94 153.446 106.82C153.166 106.687 153.026 106.473 153.026 106.18V101.44C153.026 101.067 152.946 100.747 152.786 100.48C152.639 100.213 152.439 100.007 152.186 99.86C151.946 99.7133 151.686 99.64 151.406 99.64C151.139 99.64 150.886 99.7067 150.646 99.84C150.406 99.9733 150.206 100.173 150.046 100.44C149.899 100.707 149.826 101.04 149.826 101.44V106.16C149.826 106.373 149.699 106.567 149.446 106.74C149.193 106.913 148.886 107 148.526 107ZM171.781 107.18C170.834 107.18 169.994 107.013 169.261 106.68C168.541 106.333 167.974 105.853 167.561 105.24C167.147 104.613 166.941 103.893 166.941 103.08V101.38C166.941 100.66 167.134 100 167.521 99.4C167.921 98.7867 168.447 98.3 169.101 97.94C169.767 97.5667 170.507 97.38 171.321 97.38C172.067 97.38 172.747 97.54 173.361 97.86C173.987 98.18 174.494 98.62 174.881 99.18C175.267 99.74 175.461 100.393 175.461 101.14C175.461 101.713 175.367 102.127 175.181 102.38C174.994 102.62 174.754 102.773 174.461 102.84C174.181 102.893 173.887 102.92 173.581 102.92H169.521V103.22C169.521 103.793 169.734 104.26 170.161 104.62C170.601 104.967 171.167 105.14 171.861 105.14C172.301 105.14 172.667 105.073 172.961 104.94C173.254 104.807 173.507 104.68 173.721 104.56C173.934 104.44 174.134 104.38 174.321 104.38C174.521 104.38 174.694 104.447 174.841 104.58C174.987 104.713 175.101 104.873 175.181 105.06C175.261 105.233 175.301 105.387 175.301 105.52C175.301 105.747 175.154 105.993 174.861 106.26C174.581 106.513 174.174 106.733 173.641 106.92C173.121 107.093 172.501 107.18 171.781 107.18ZM169.521 101.4H172.441C172.667 101.4 172.821 101.367 172.901 101.3C172.994 101.22 173.041 101.073 173.041 100.86C173.041 100.553 172.954 100.28 172.781 100.04C172.621 99.8 172.407 99.6133 172.141 99.48C171.887 99.3467 171.601 99.28 171.281 99.28C170.974 99.28 170.687 99.3467 170.421 99.48C170.154 99.6 169.934 99.78 169.761 100.02C169.601 100.247 169.521 100.52 169.521 100.84V101.4Z" fill="black"/>
</svg>
