<svg width="1010" height="90" viewBox="0 0 1010 90" fill="none" xmlns="http://www.w3.org/2000/svg">
<path d="M37.832 36.544H84.424C105.288 36.544 116.552 44.352 116.552 59.968C116.552 77.504 105.928 88 79.816 88H0.072L17.096 65.984H81.864C88.136 65.984 90.952 64.192 90.952 59.712C90.952 55.36 88.136 53.568 81.864 53.568H35.272C13.256 53.568 3.144 43.712 3.144 28.992C3.144 12.864 13.896 2.368 39.88 2.368H114.248L97.224 24.64H37.832C31.688 24.64 28.744 26.176 28.744 30.528C28.744 34.88 31.688 36.544 37.832 36.544ZM241.338 34.496C241.338 53.44 225.85 66.112 199.226 66.112H154.426V88H128.058V44.224H201.786C209.978 44.224 214.714 40.256 214.714 34.368C214.714 28.352 209.978 24.64 201.786 24.64H128.058L145.594 2.368H199.354C225.85 2.368 241.338 15.424 241.338 34.496ZM314.718 0.959999C356.318 0.959999 377.31 14.528 377.31 45.12C377.31 75.712 356.318 89.408 314.718 89.408C272.99 89.408 252.126 75.712 252.126 45.12C252.126 14.528 272.99 0.959999 314.718 0.959999ZM314.718 67.136C341.342 67.136 350.942 63.552 350.942 45.12C350.942 26.688 341.342 23.232 314.718 23.232C288.094 23.232 278.494 26.688 278.494 45.12C278.494 63.552 288.094 67.136 314.718 67.136ZM477.473 89.408C474.145 89.408 470.945 88.64 466.849 84.8L414.369 37.696V88H390.305V16.96C390.305 5.56799 397.217 0.959999 404.769 0.959999C407.969 0.959999 411.169 1.728 415.393 5.56799L467.873 52.672V2.368H492.065V73.28C492.065 84.672 485.153 89.408 477.473 89.408ZM540.457 36.544H587.049C607.913 36.544 619.177 44.352 619.177 59.968C619.177 77.504 608.553 88 582.441 88H502.697L519.721 65.984H584.489C590.761 65.984 593.577 64.192 593.577 59.712C593.577 55.36 590.761 53.568 584.489 53.568H537.897C515.881 53.568 505.769 43.712 505.769 28.992C505.769 12.864 516.521 2.368 542.505 2.368H616.873L599.849 24.64H540.457C534.313 24.64 531.369 26.176 531.369 30.528C531.369 34.88 534.313 36.544 540.457 36.544ZM690.843 0.959999C732.443 0.959999 753.435 14.528 753.435 45.12C753.435 75.712 732.443 89.408 690.843 89.408C649.115 89.408 628.251 75.712 628.251 45.12C628.251 14.528 649.115 0.959999 690.843 0.959999ZM690.843 67.136C717.467 67.136 727.067 63.552 727.067 45.12C727.067 26.688 717.467 23.232 690.843 23.232C664.219 23.232 654.619 26.688 654.619 45.12C654.619 63.552 664.219 67.136 690.843 67.136ZM872.542 71.36L888.286 88H852.83L833.758 65.344H793.054V88H766.558V44.224H841.054C849.246 44.224 855.646 40.512 855.646 34.624C855.646 27.968 850.142 24.64 841.054 24.64H766.558L783.838 2.368H838.878C858.334 2.368 882.91 8.51199 882.91 32.96C882.91 46.272 874.59 57.28 860.51 60.096C863.454 62.272 866.654 65.344 872.542 71.36ZM930.582 36.544H977.174C998.038 36.544 1009.3 44.352 1009.3 59.968C1009.3 77.504 998.678 88 972.566 88H892.822L909.846 65.984H974.614C980.886 65.984 983.702 64.192 983.702 59.712C983.702 55.36 980.886 53.568 974.614 53.568H928.022C906.006 53.568 895.894 43.712 895.894 28.992C895.894 12.864 906.646 2.368 932.63 2.368H1007L989.974 24.64H930.582C924.438 24.64 921.494 26.176 921.494 30.528C921.494 34.88 924.438 36.544 930.582 36.544Z" fill="black"/>
</svg>
